<svg width="500" height="120" viewBox="0 0 500 120" fill="none" xmlns="http://www.w3.org/2000/svg">
<g filter="url(#filter0_d_4_3)">
<path d="M36.725 63.595C35.75 71.135 30.225 76.14 22.88 76.14C13.65 76.14 7.735 68.86 7.735 57.55C7.735 45.655 13.52 38.505 23.14 38.505C29.77 38.505 33.995 41.625 36.01 47.995H40.235C38.09 39.285 32.37 34.8 23.335 34.8C16.12 34.8 10.985 37.4 7.345 42.73C4.615 46.76 3.38 51.31 3.38 56.965C3.38 71.2 10.725 79.845 22.75 79.845C32.76 79.845 39.39 73.865 40.885 63.595H36.725ZM87.9445 76.335C87.0995 76.53 86.7095 76.595 86.2545 76.595C84.8245 76.595 84.3695 75.88 84.3695 73.54V57.94C84.3695 53.845 84.1745 52.61 83.1345 51.05C81.3795 48.45 77.5445 46.955 72.6045 46.955C65.1295 46.955 60.9045 50.53 60.4495 57.095H64.6745C65.0645 52.22 67.3395 50.27 72.6695 50.27C78.1945 50.27 80.5995 52.09 80.5995 56.38C80.5995 59.565 80.4045 59.76 77.0895 60.215L69.3545 61.385C64.9995 62.035 63.2445 62.75 61.4895 64.57C59.9295 66.13 59.1495 68.34 59.1495 70.94C59.1495 76.53 62.8545 79.845 69.1595 79.845C74.0345 79.845 76.9595 78.545 80.4695 74.71C80.7945 78.35 81.9645 79.585 85.0195 79.585C85.9295 79.585 86.5795 79.455 87.9445 79V76.335ZM80.4695 62.88V65.35C80.4695 68.99 80.0795 70.81 78.8445 72.37C76.8295 75.035 73.5145 76.53 69.7445 76.53C65.5845 76.53 63.0495 74.385 63.0495 70.745C63.0495 67.04 64.9995 65.285 69.8095 64.505L80.4695 62.88ZM107.044 79H110.944V35.645H107.044V79ZM133.501 79H137.401V62.425C137.401 59.63 137.531 58.265 137.791 56.77C138.701 52.61 141.691 50.205 146.046 50.205C149.036 50.205 150.986 51.44 151.831 53.845C152.221 55.08 152.351 56.445 152.351 60.02V79H156.251V60.865C156.251 58.785 156.381 57.29 156.706 56.055C157.746 52.285 160.541 50.205 164.506 50.205C167.691 50.205 169.771 51.44 170.551 53.78C170.941 54.95 171.071 56.185 171.071 58.59V79H174.971V58.46C174.971 55.21 174.841 53.975 174.386 52.545C173.151 48.97 169.836 46.955 165.221 46.955C160.671 46.955 157.551 48.645 155.276 52.285C153.391 48.645 150.531 46.955 146.241 46.955C142.601 46.955 139.936 48.255 137.401 51.18V47.8H133.501V79Z" fill="black"/>
</g>
<g filter="url(#filter1_d_4_3)">
<path d="M335.809 63.595C334.834 71.135 329.309 76.14 321.964 76.14C312.734 76.14 306.819 68.86 306.819 57.55C306.819 45.655 312.604 38.505 322.224 38.505C328.854 38.505 333.079 41.625 335.094 47.995H339.319C337.174 39.285 331.454 34.8 322.419 34.8C315.204 34.8 310.069 37.4 306.429 42.73C303.699 46.76 302.464 51.31 302.464 56.965C302.464 71.2 309.809 79.845 321.834 79.845C331.844 79.845 338.474 73.865 339.969 63.595H335.809ZM360.183 79H364.083V35.645H360.183V79ZM413.486 76.335C412.641 76.53 412.251 76.595 411.796 76.595C410.366 76.595 409.911 75.88 409.911 73.54V57.94C409.911 53.845 409.716 52.61 408.676 51.05C406.921 48.45 403.086 46.955 398.146 46.955C390.671 46.955 386.446 50.53 385.991 57.095H390.216C390.606 52.22 392.881 50.27 398.211 50.27C403.736 50.27 406.141 52.09 406.141 56.38C406.141 59.565 405.946 59.76 402.631 60.215L394.896 61.385C390.541 62.035 388.786 62.75 387.031 64.57C385.471 66.13 384.691 68.34 384.691 70.94C384.691 76.53 388.396 79.845 394.701 79.845C399.576 79.845 402.501 78.545 406.011 74.71C406.336 78.35 407.506 79.585 410.561 79.585C411.471 79.585 412.121 79.455 413.486 79V76.335ZM406.011 62.88V65.35C406.011 68.99 405.621 70.81 404.386 72.37C402.371 75.035 399.056 76.53 395.286 76.53C391.126 76.53 388.591 74.385 388.591 70.745C388.591 67.04 390.541 65.285 395.351 64.505L406.011 62.88ZM430.44 69.185C430.44 75.945 434.99 79.845 442.855 79.845C450.265 79.845 454.945 76.075 454.945 70.095C454.945 67.235 453.775 65.09 451.63 63.855C450.005 62.88 448.64 62.425 444.22 61.385C439.345 60.28 438.955 60.15 437.655 59.565C436.095 58.785 435.185 57.355 435.185 55.6C435.185 52.415 437.915 50.53 442.4 50.53C447.535 50.53 449.68 52.155 450.525 56.705H454.36C453.645 50.14 449.81 46.955 442.66 46.955C435.64 46.955 431.285 50.4 431.285 55.99C431.285 60.41 433.82 62.945 439.54 64.18C445.65 65.545 446.3 65.675 447.73 66.26C450.135 67.235 451.045 68.34 451.045 70.355C451.045 74.125 448.12 76.465 443.31 76.465C437.72 76.465 434.73 74.06 434.34 69.185H430.44ZM473.02 69.185C473.02 75.945 477.57 79.845 485.435 79.845C492.845 79.845 497.525 76.075 497.525 70.095C497.525 67.235 496.355 65.09 494.21 63.855C492.585 62.88 491.22 62.425 486.8 61.385C481.925 60.28 481.535 60.15 480.235 59.565C478.675 58.785 477.765 57.355 477.765 55.6C477.765 52.415 480.495 50.53 484.98 50.53C490.115 50.53 492.26 52.155 493.105 56.705H496.94C496.225 50.14 492.39 46.955 485.24 46.955C478.22 46.955 473.865 50.4 473.865 55.99C473.865 60.41 476.4 62.945 482.12 64.18C488.23 65.545 488.88 65.675 490.31 66.26C492.715 67.235 493.625 68.34 493.625 70.355C493.625 74.125 490.7 76.465 485.89 76.465C480.3 76.465 477.31 74.06 476.92 69.185H473.02Z" fill="black"/>
</g>
<g filter="url(#filter2_d_4_3)">
<path d="M209.936 111.958C246.431 112.914 239.291 97.3491 230.96 82.076V69.3264L229.373 60.1625L230.96 50.9987L232.15 42.6317L241.671 25.4993L207.556 52.9908L200.415 61.7562L193.275 70.5216C185.606 82.2088 173.441 111.002 209.936 111.958Z" fill="url(#paint0_linear_4_3)"/>
<path d="M273.406 0.0419235C236.91 -0.914307 244.051 14.6509 252.381 29.924V42.6736L253.968 51.8375L252.381 61.0013L251.191 69.3683L241.671 86.5006L275.786 59.0092L282.926 50.2438L290.066 41.4784C297.736 29.7912 309.901 0.998146 273.406 0.0419235Z" fill="url(#paint1_linear_4_3)"/>
</g>
<defs>
<filter id="filter0_d_4_3" x="-0.619995" y="34.8" width="179.591" height="53.045" filterUnits="userSpaceOnUse" color-interpolation-filters="sRGB">
<feFlood flood-opacity="0" result="BackgroundImageFix"/>
<feColorMatrix in="SourceAlpha" type="matrix" values="0 0 0 0 0 0 0 0 0 0 0 0 0 0 0 0 0 0 127 0" result="hardAlpha"/>
<feOffset dy="4"/>
<feGaussianBlur stdDeviation="2"/>
<feComposite in2="hardAlpha" operator="out"/>
<feColorMatrix type="matrix" values="0 0 0 0 0 0 0 0 0 0 0 0 0 0 0 0 0 0 0.25 0"/>
<feBlend mode="normal" in2="BackgroundImageFix" result="effect1_dropShadow_4_3"/>
<feBlend mode="normal" in="SourceGraphic" in2="effect1_dropShadow_4_3" result="shape"/>
</filter>
<filter id="filter1_d_4_3" x="298.464" y="34.8" width="203.061" height="53.045" filterUnits="userSpaceOnUse" color-interpolation-filters="sRGB">
<feFlood flood-opacity="0" result="BackgroundImageFix"/>
<feColorMatrix in="SourceAlpha" type="matrix" values="0 0 0 0 0 0 0 0 0 0 0 0 0 0 0 0 0 0 127 0" result="hardAlpha"/>
<feOffset dy="4"/>
<feGaussianBlur stdDeviation="2"/>
<feComposite in2="hardAlpha" operator="out"/>
<feColorMatrix type="matrix" values="0 0 0 0 0 0 0 0 0 0 0 0 0 0 0 0 0 0 0.25 0"/>
<feBlend mode="normal" in2="BackgroundImageFix" result="effect1_dropShadow_4_3"/>
<feBlend mode="normal" in="SourceGraphic" in2="effect1_dropShadow_4_3" result="shape"/>
</filter>
<filter id="filter2_d_4_3" x="181" y="-1.90735e-06" width="121.341" height="120" filterUnits="userSpaceOnUse" color-interpolation-filters="sRGB">
<feFlood flood-opacity="0" result="BackgroundImageFix"/>
<feColorMatrix in="SourceAlpha" type="matrix" values="0 0 0 0 0 0 0 0 0 0 0 0 0 0 0 0 0 0 127 0" result="hardAlpha"/>
<feOffset dy="4"/>
<feGaussianBlur stdDeviation="2"/>
<feComposite in2="hardAlpha" operator="out"/>
<feColorMatrix type="matrix" values="0 0 0 0 0 0 0 0 0 0 0 0 0 0 0 0 0 0 0.25 0"/>
<feBlend mode="normal" in2="BackgroundImageFix" result="effect1_dropShadow_4_3"/>
<feBlend mode="normal" in="SourceGraphic" in2="effect1_dropShadow_4_3" result="shape"/>
</filter>
<linearGradient id="paint0_linear_4_3" x1="213.335" y1="25.4993" x2="213.335" y2="112" gradientUnits="userSpaceOnUse">
<stop stop-color="#7000FF"/>
<stop offset="1" stop-color="#8220FF" stop-opacity="0.44"/>
</linearGradient>
<linearGradient id="paint1_linear_4_3" x1="270.006" y1="86.5006" x2="270.006" y2="0" gradientUnits="userSpaceOnUse">
<stop stop-color="#7000FF"/>
<stop offset="1" stop-color="#8220FF" stop-opacity="0.44"/>
</linearGradient>
</defs>
</svg>
